{"glyphs":{":":{"x_min":0,"x_max":188,"ha":188,"o":"m 41 381 l 147 381 l 147 487 l 41 487 z m 41 0 l 147 0 l 147 106 l 41 106 z"},"$":{"x_min":0,"x_max":400,"ha":400,"o":"m 155 -55 l 245 -55 l 245 15 b 323 31 364 92 364 182 b 364 262 333 317 243 389 b 169 448 149 483 149 529 b 149 570 169 589 204 589 b 239 589 259 570 259 527 l 259 500 l 363 500 l 363 520 b 363 608 323 668 245 684 l 245 745 l 155 745 l 155 684 b 78 667 39 607 39 522 b 39 446 70 390 160 319 b 234 261 254 225 254 175 b 254 130 232 112 197 112 b 162 112 140 130 140 173 l 140 226 l 36 226 l 36 180 b 36 92 76 31 155 15 z"},"?":{"x_min":0,"x_max":363,"ha":363,"o":"m 117 185 l 213 185 l 213 223 b 213 258 227 292 270 350 b 324 422 343 473 343 534 b 343 646 287 710 180 710 b 73 710 19 646 19 534 l 19 465 l 123 465 l 123 541 b 123 591 143 610 178 610 b 213 610 233 591 233 541 b 233 488 220 445 171 375 b 128 314 117 273 117 227 z m 112 0 l 218 0 l 218 106 l 112 106 z"},"<":{"x_min":0,"x_max":400,"ha":400,"o":"m 346 181 l 346 261 l 135 350 l 346 439 l 346 519 l 40 387 l 40 313 z"},"'":{"x_min":0,"x_max":188,"ha":188,"o":"m 64 474 l 123 474 l 150 700 l 38 700 z"},"=":{"x_min":0,"x_max":400,"ha":400,"o":"m 37 392 l 363 392 l 363 470 l 37 470 z m 37 230 l 363 230 l 363 308 l 37 308 z"},"a":{"x_min":0,"x_max":401,"ha":401,"o":"m 12 0 l 114 0 l 134 137 l 259 137 l 259 139 l 279 0 l 389 0 l 275 700 l 126 700 z m 147 232 l 195 578 l 197 578 l 246 232 z"},"L":{"x_min":0,"x_max":344,"ha":344,"o":"m 41 0 l 332 0 l 332 100 l 151 100 l 151 700 l 41 700 z"},"3":{"x_min":0,"x_max":400,"ha":400,"o":"m 197 -10 b 305 -10 361 51 361 163 l 361 225 b 361 296 339 347 280 369 l 280 371 b 334 391 358 437 358 512 l 358 537 b 358 649 302 710 197 710 b 92 710 36 648 36 536 l 36 499 l 140 499 l 140 545 b 140 591 161 610 193 610 b 225 610 248 590 248 540 l 248 489 b 248 433 223 415 182 415 l 142 415 l 142 315 l 179 315 b 229 315 251 291 251 226 l 251 169 b 251 107 229 90 194 90 b 159 90 137 109 137 159 l 137 221 l 33 221 l 33 164 b 33 52 89 -10 197 -10 z"},";":{"x_min":0,"x_max":188,"ha":188,"o":"m 41 381 l 147 381 l 147 487 l 41 487 z m 35 -120 l 86 -120 l 147 11 l 147 106 l 41 106 l 41 0 l 77 0 z"},"J":{"x_min":0,"x_max":265,"ha":265,"o":"m 67 -4 b 175 -4 227 51 227 166 l 227 700 l 117 700 l 117 163 b 117 117 96 96 52 96 b 40 96 28 97 16 100 l 16 0 b 32 -3 47 -4 67 -4 z"},"V":{"x_min":0,"x_max":382,"ha":382,"o":"m 118 0 l 264 0 l 370 700 l 269 700 l 197 157 l 195 157 l 123 700 l 12 700 z"},"\"":{"x_min":0,"x_max":336,"ha":336,"o":"m 64 474 l 123 474 l 150 700 l 38 700 z m 212 474 l 271 474 l 298 700 l 186 700 z"},"7":{"x_min":0,"x_max":400,"ha":400,"o":"m 80 0 l 192 0 l 364 604 l 364 700 l 34 700 l 34 600 l 256 600 z"},"S":{"x_min":0,"x_max":372,"ha":372,"o":"m 184 -10 b 292 -10 350 54 350 168 b 350 255 321 311 229 392 b 157 455 134 492 134 543 b 134 591 154 610 189 610 b 224 610 244 591 244 541 l 244 505 l 348 505 l 348 534 b 348 646 295 710 188 710 b 81 710 24 646 24 536 b 24 456 54 399 146 318 b 218 255 240 218 240 160 b 240 108 218 90 183 90 b 148 90 126 108 126 158 l 126 206 l 22 206 l 22 166 b 22 54 76 -10 184 -10 z"},"}":{"x_min":0,"x_max":276,"ha":276,"o":"m 25 -50 l 81 -50 b 143 -50 192 -15 192 61 l 192 245 b 192 291 205 305 255 305 l 255 395 b 205 395 192 409 192 455 l 192 639 b 192 715 143 750 81 750 l 25 750 l 25 660 l 41 660 b 76 660 94 644 94 589 l 94 439 b 94 403 107 365 155 351 l 155 349 b 107 335 94 297 94 261 l 94 111 b 94 56 76 40 41 40 l 25 40 z"},"Z":{"x_min":0,"x_max":362,"ha":362,"o":"m 19 0 l 341 0 l 341 100 l 137 100 l 341 602 l 341 700 l 29 700 l 29 600 l 223 600 l 19 98 z"},"x":{"x_min":0,"x_max":406,"ha":406,"o":"m 11 0 l 115 0 l 197 244 l 199 244 l 279 0 l 395 0 l 268 358 l 389 700 l 285 700 l 209 474 l 207 474 l 133 700 l 17 700 l 138 358 z"},")":{"x_min":0,"x_max":276,"ha":276,"o":"m 35 -50 l 69 -50 b 179 -50 223 -9 223 103 l 223 597 b 223 709 179 750 69 750 l 35 750 l 35 660 l 62 660 b 97 660 113 647 113 597 l 113 103 b 113 53 97 40 62 40 l 35 40 z"},"&":{"x_min":0,"x_max":417,"ha":417,"o":"m 156 -10 b 205 -10 233 14 256 55 l 258 55 b 260 24 263 14 268 0 l 378 0 b 367 26 366 51 366 85 l 366 315 l 397 315 l 397 415 l 366 415 l 366 493 l 258 493 l 258 415 l 215 415 b 174 415 149 433 149 489 l 149 532 b 149 582 170 600 205 600 l 329 600 l 329 700 l 203 700 b 93 700 39 639 39 527 l 39 514 b 39 439 63 393 115 371 l 115 369 b 56 345 34 294 34 223 l 34 150 b 34 47 75 -10 156 -10 z m 197 90 b 166 90 144 105 144 155 l 144 226 b 144 291 166 315 216 315 l 258 315 l 258 153 b 252 109 230 90 197 90 z"},"_":{"x_min":0,"x_max":300,"ha":300,"o":"m 0 -90 l 300 -90 l 300 -10 l 0 -10 z"},"v":{"x_min":0,"x_max":382,"ha":382,"o":"m 118 0 l 264 0 l 370 700 l 269 700 l 197 157 l 195 157 l 123 700 l 12 700 z"},"O":{"x_min":0,"x_max":400,"ha":400,"o":"m 200 -10 b 308 -10 367 54 367 166 l 367 534 b 367 646 308 710 200 710 b 92 710 33 646 33 534 l 33 166 b 33 54 92 -10 200 -10 z m 200 90 b 165 90 143 109 143 159 l 143 541 b 143 591 165 610 200 610 b 235 610 257 591 257 541 l 257 159 b 257 109 235 90 200 90 z"},"(":{"x_min":0,"x_max":276,"ha":276,"o":"m 207 -50 l 241 -50 l 241 40 l 214 40 b 179 40 163 53 163 103 l 163 597 b 163 647 179 660 214 660 l 241 660 l 241 750 l 207 750 b 97 750 53 709 53 597 l 53 103 b 53 -9 97 -50 207 -50 z"},"C":{"x_min":0,"x_max":383,"ha":383,"o":"m 196 -10 b 302 -10 358 54 358 162 l 358 261 l 254 261 l 254 154 b 254 108 232 90 199 90 b 166 90 144 108 144 154 l 144 545 b 144 591 166 610 199 610 b 232 610 254 591 254 545 l 254 464 l 358 464 l 358 538 b 358 646 302 710 196 710 b 90 710 34 646 34 538 l 34 162 b 34 54 90 -10 196 -10 z"},"W":{"x_min":0,"x_max":557,"ha":557,"o":"m 86 0 l 232 0 l 282 472 l 284 472 l 334 0 l 471 0 l 542 700 l 447 700 l 398 162 l 396 162 l 344 700 l 224 700 l 172 162 l 170 162 l 121 700 l 15 700 z"},"A":{"x_min":0,"x_max":401,"ha":401,"o":"m 12 0 l 114 0 l 134 137 l 259 137 l 259 139 l 279 0 l 389 0 l 275 700 l 126 700 z m 147 232 l 195 578 l 197 578 l 246 232 z"},"f":{"x_min":0,"x_max":344,"ha":344,"o":"m 41 0 l 151 0 l 151 305 l 293 305 l 293 405 l 151 405 l 151 600 l 332 600 l 332 700 l 41 700 z"},"Q":{"x_min":0,"x_max":400,"ha":400,"o":"m 365 -65 l 394 -65 l 394 35 l 377 35 b 357 35 344 37 336 51 b 356 80 367 118 367 166 l 367 534 b 367 646 308 710 200 710 b 92 710 33 646 33 534 l 33 166 b 33 54 92 -10 200 -10 b 227 -10 252 -6 273 2 b 286 -50 324 -65 365 -65 z m 200 90 b 165 90 143 109 143 159 l 143 541 b 143 591 165 610 200 610 b 235 610 257 591 257 541 l 257 159 b 257 109 235 90 200 90 z"},"w":{"x_min":0,"x_max":557,"ha":557,"o":"m 86 0 l 232 0 l 282 472 l 284 472 l 334 0 l 471 0 l 542 700 l 447 700 l 398 162 l 396 162 l 344 700 l 224 700 l 172 162 l 170 162 l 121 700 l 15 700 z"},"-":{"x_min":0,"x_max":270,"ha":270,"o":"m 25 300 l 245 300 l 245 400 l 25 400 z"},"E":{"x_min":0,"x_max":363,"ha":363,"o":"m 41 0 l 341 0 l 341 100 l 151 100 l 151 315 l 302 315 l 302 415 l 151 415 l 151 600 l 341 600 l 341 700 l 41 700 z"},"s":{"x_min":0,"x_max":372,"ha":372,"o":"m 184 -10 b 292 -10 350 54 350 168 b 350 255 321 311 229 392 b 157 455 134 492 134 543 b 134 591 154 610 189 610 b 224 610 244 591 244 541 l 244 505 l 348 505 l 348 534 b 348 646 295 710 188 710 b 81 710 24 646 24 536 b 24 456 54 399 146 318 b 218 255 240 218 240 160 b 240 108 218 90 183 90 b 148 90 126 108 126 158 l 126 206 l 22 206 l 22 166 b 22 54 76 -10 184 -10 z"},">":{"x_min":0,"x_max":400,"ha":400,"o":"m 54 181 l 360 313 l 360 387 l 54 519 l 54 439 l 265 350 l 54 261 z"},"l":{"x_min":0,"x_max":344,"ha":344,"o":"m 41 0 l 332 0 l 332 100 l 151 100 l 151 700 l 41 700 z"},"8":{"x_min":0,"x_max":400,"ha":400,"o":"m 200 -10 b 311 -10 372 51 372 163 l 372 225 b 372 292 352 341 300 368 l 300 370 b 345 395 368 439 368 508 l 368 537 b 368 649 307 710 200 710 b 93 710 32 649 32 537 l 32 508 b 32 439 54 395 100 370 l 100 368 b 48 341 28 292 28 225 l 28 163 b 28 51 89 -10 200 -10 z m 200 415 b 162 415 142 439 142 485 l 142 540 b 142 586 162 610 200 610 b 238 610 258 586 258 540 l 258 485 b 258 439 238 415 200 415 z m 200 90 b 159 90 138 116 138 169 l 138 236 b 138 289 159 315 200 315 b 241 315 262 289 262 236 l 262 169 b 262 116 241 90 200 90 z"},"\\":{"x_min":0,"x_max":389,"ha":389,"o":"m 285 0 l 380 0 l 104 700 l 9 700 z"},"e":{"x_min":0,"x_max":363,"ha":363,"o":"m 41 0 l 341 0 l 341 100 l 151 100 l 151 315 l 302 315 l 302 415 l 151 415 l 151 600 l 341 600 l 341 700 l 41 700 z"},"b":{"x_min":0,"x_max":404,"ha":404,"o":"m 41 0 l 214 0 b 324 0 381 58 381 166 l 381 226 b 381 300 358 352 299 372 l 299 374 b 348 394 370 439 370 511 l 370 539 b 370 647 321 700 207 700 l 41 700 z m 151 415 l 151 600 l 204 600 b 243 600 260 578 260 528 l 260 489 b 260 433 235 415 194 415 z m 151 100 l 151 315 l 200 315 b 250 315 271 295 271 230 l 271 169 b 271 117 251 100 214 100 z"},"%":{"x_min":0,"x_max":589,"ha":589,"o":"m 141 311 b 210 311 247 351 247 423 l 247 598 b 247 670 210 710 141 710 b 72 710 35 670 35 598 l 35 423 b 35 351 72 311 141 311 z m 124 0 l 194 0 l 465 700 l 395 700 z m 141 374 b 118 374 105 387 105 418 l 105 603 b 105 634 118 647 141 647 b 163 647 177 634 177 603 l 177 418 b 177 387 163 374 141 374 z m 448 -10 b 517 -10 554 30 554 102 l 554 277 b 554 349 517 389 448 389 b 379 389 342 349 342 277 l 342 102 b 342 30 379 -10 448 -10 z m 448 53 b 425 53 412 66 412 97 l 412 282 b 412 313 425 326 448 326 b 470 326 484 313 484 282 l 484 97 b 484 66 470 53 448 53 z"},"m":{"x_min":0,"x_max":538,"ha":538,"o":"m 41 0 l 137 0 l 137 530 l 139 530 l 219 0 l 311 0 l 391 530 l 393 530 l 393 0 l 497 0 l 497 700 l 340 700 l 270 199 l 268 199 l 198 700 l 41 700 z"},"#":{"x_min":0,"x_max":412,"ha":412,"o":"m 44 0 l 131 0 l 152 200 l 223 200 l 202 0 l 289 0 l 310 200 l 361 200 l 369 278 l 318 278 l 337 461 l 388 461 l 396 539 l 345 539 l 362 700 l 275 700 l 258 539 l 187 539 l 204 700 l 117 700 l 100 539 l 50 539 l 42 461 l 92 461 l 73 278 l 24 278 l 16 200 l 65 200 z m 160 278 l 179 461 l 250 461 l 231 278 z"},",":{"x_min":0,"x_max":188,"ha":188,"o":"m 41 -120 l 92 -120 l 147 11 l 147 106 l 41 106 l 41 0 l 77 0 z"},"n":{"x_min":0,"x_max":427,"ha":427,"o":"m 41 0 l 139 0 l 139 511 l 141 511 l 273 0 l 386 0 l 386 700 l 288 700 l 288 281 l 286 281 l 179 700 l 41 700 z"},"h":{"x_min":0,"x_max":420,"ha":420,"o":"m 41 0 l 151 0 l 151 315 l 269 315 l 269 0 l 379 0 l 379 700 l 269 700 l 269 415 l 151 415 l 151 700 l 41 700 z"},"z":{"x_min":0,"x_max":362,"ha":362,"o":"m 19 0 l 341 0 l 341 100 l 137 100 l 341 602 l 341 700 l 29 700 l 29 600 l 223 600 l 19 98 z"},"B":{"x_min":0,"x_max":404,"ha":404,"o":"m 41 0 l 214 0 b 324 0 381 58 381 166 l 381 226 b 381 300 358 352 299 372 l 299 374 b 348 394 370 439 370 511 l 370 539 b 370 647 321 700 207 700 l 41 700 z m 151 415 l 151 600 l 204 600 b 243 600 260 578 260 528 l 260 489 b 260 433 235 415 194 415 z m 151 100 l 151 315 l 200 315 b 250 315 271 295 271 230 l 271 169 b 271 117 251 100 214 100 z"},"K":{"x_min":0,"x_max":414,"ha":414,"o":"m 41 0 l 151 0 l 151 223 l 195 312 l 288 0 l 403 0 l 270 443 l 401 700 l 291 700 l 151 405 l 151 700 l 41 700 z"},"R":{"x_min":0,"x_max":403,"ha":403,"o":"m 41 0 l 151 0 l 151 300 l 189 300 b 239 300 258 279 258 214 l 258 86 b 258 29 262 18 268 0 l 380 0 b 369 26 368 51 368 85 l 368 208 b 368 287 350 339 295 356 l 295 358 b 344 378 367 424 367 496 l 367 539 b 367 647 318 700 204 700 l 41 700 z m 151 400 l 151 600 l 201 600 b 240 600 257 578 257 528 l 257 474 b 257 418 232 400 191 400 z"},"T":{"x_min":0,"x_max":364,"ha":364,"o":"m 127 0 l 237 0 l 237 600 l 352 600 l 352 700 l 12 700 l 12 600 l 127 600 z"},"P":{"x_min":0,"x_max":386,"ha":386,"o":"m 41 0 l 151 0 l 151 285 l 203 285 b 313 285 367 346 367 458 l 367 527 b 367 639 313 700 203 700 l 41 700 z m 151 385 l 151 600 l 203 600 b 238 600 257 584 257 534 l 257 451 b 257 401 238 385 203 385 z"},"|":{"x_min":0,"x_max":500,"ha":500,"o":"m 205 -200 l 295 -200 l 295 800 l 205 800 z"},"t":{"x_min":0,"x_max":364,"ha":364,"o":"m 127 0 l 237 0 l 237 600 l 352 600 l 352 700 l 12 700 l 12 600 l 127 600 z"},"M":{"x_min":0,"x_max":538,"ha":538,"o":"m 41 0 l 137 0 l 137 530 l 139 530 l 219 0 l 311 0 l 391 530 l 393 530 l 393 0 l 497 0 l 497 700 l 340 700 l 270 199 l 268 199 l 198 700 l 41 700 z"},"g":{"x_min":0,"x_max":391,"ha":391,"o":"m 197 -10 b 305 -10 361 54 361 166 l 361 395 l 202 395 l 202 295 l 257 295 l 257 158 b 257 108 235 90 200 90 b 165 90 143 108 143 158 l 143 541 b 143 591 165 610 200 610 b 235 610 257 591 257 541 l 257 474 l 361 474 l 361 534 b 361 646 305 710 197 710 b 89 710 33 646 33 534 l 33 166 b 33 54 89 -10 197 -10 z"},"j":{"x_min":0,"x_max":265,"ha":265,"o":"m 67 -4 b 175 -4 227 51 227 166 l 227 700 l 117 700 l 117 163 b 117 117 96 96 52 96 b 40 96 28 97 16 100 l 16 0 b 32 -3 47 -4 67 -4 z"},"i":{"x_min":0,"x_max":192,"ha":192,"o":"m 41 0 l 151 0 l 151 700 l 41 700 z"},"y":{"x_min":0,"x_max":394,"ha":394,"o":"m 142 0 l 252 0 l 252 298 l 385 700 l 278 700 l 203 443 l 201 443 l 126 700 l 9 700 l 142 298 z"},"@":{"x_min":0,"x_max":696,"ha":696,"o":"m 346 -60 b 420 -60 485 -48 551 -4 l 559 92 b 489 38 426 24 352 24 b 193 24 119 124 119 285 b 119 513 212 655 390 655 b 529 655 589 569 589 444 b 589 348 565 224 509 224 b 495 224 489 230 489 243 b 489 247 489 249 490 259 l 519 538 l 426 538 l 417 481 l 415 481 b 402 520 375 542 333 542 b 263 542 224 492 213 394 l 202 293 b 201 282 200 270 200 259 b 200 183 233 139 294 139 b 338 139 368 158 388 199 l 390 199 b 394 152 426 133 477 133 b 554 133 672 206 672 446 b 672 608 605 740 394 740 b 147 740 25 537 25 290 b 25 83 121 -60 346 -60 z m 342 232 b 315 232 298 248 298 283 b 298 288 298 290 299 298 l 308 383 b 313 430 334 446 365 446 b 390 446 409 432 409 402 b 409 399 409 396 408 390 l 398 295 b 393 249 372 232 342 232 z"},".":{"x_min":0,"x_max":188,"ha":188,"o":"m 41 0 l 147 0 l 147 106 l 41 106 z"},"p":{"x_min":0,"x_max":386,"ha":386,"o":"m 41 0 l 151 0 l 151 285 l 203 285 b 313 285 367 346 367 458 l 367 527 b 367 639 313 700 203 700 l 41 700 z m 151 385 l 151 600 l 203 600 b 238 600 257 584 257 534 l 257 451 b 257 401 238 385 203 385 z"},"X":{"x_min":0,"x_max":406,"ha":406,"o":"m 11 0 l 115 0 l 197 244 l 199 244 l 279 0 l 395 0 l 268 358 l 389 700 l 285 700 l 209 474 l 207 474 l 133 700 l 17 700 l 138 358 z"},"*":{"x_min":0,"x_max":422,"ha":422,"o":"m 134 327 l 211 462 l 288 327 l 360 380 l 254 492 l 407 525 l 379 610 l 236 542 l 256 700 l 166 700 l 186 542 l 43 610 l 15 525 l 168 492 l 62 380 z"},"Y":{"x_min":0,"x_max":394,"ha":394,"o":"m 142 0 l 252 0 l 252 298 l 385 700 l 278 700 l 203 443 l 201 443 l 126 700 l 9 700 l 142 298 z"},"c":{"x_min":0,"x_max":383,"ha":383,"o":"m 196 -10 b 302 -10 358 54 358 162 l 358 261 l 254 261 l 254 154 b 254 108 232 90 199 90 b 166 90 144 108 144 154 l 144 545 b 144 591 166 610 199 610 b 232 610 254 591 254 545 l 254 464 l 358 464 l 358 538 b 358 646 302 710 196 710 b 90 710 34 646 34 538 l 34 162 b 34 54 90 -10 196 -10 z"},"!":{"x_min":0,"x_max":210,"ha":210,"o":"m 64 185 l 146 185 l 160 408 l 160 700 l 50 700 l 50 408 z m 52 0 l 158 0 l 158 106 l 52 106 z"},"/":{"x_min":0,"x_max":389,"ha":389,"o":"m 9 0 l 104 0 l 380 700 l 285 700 z"},"[":{"x_min":0,"x_max":276,"ha":276,"o":"m 59 -50 l 241 -50 l 241 40 l 169 40 l 169 660 l 241 660 l 241 750 l 59 750 z"},"6":{"x_min":0,"x_max":400,"ha":400,"o":"m 203 -10 b 311 -10 370 54 370 166 l 370 291 b 370 394 329 451 248 451 b 199 451 167 430 148 390 l 146 390 l 146 524 b 146 591 168 610 207 610 b 242 610 264 591 264 541 l 264 521 l 368 521 l 368 534 b 368 646 312 710 204 710 b 90 710 36 646 36 528 l 36 166 b 36 54 95 -10 203 -10 z m 203 90 b 165 90 146 112 146 158 l 146 282 b 146 329 165 351 203 351 b 241 351 260 329 260 282 l 260 158 b 260 112 241 90 203 90 z"},"r":{"x_min":0,"x_max":403,"ha":403,"o":"m 41 0 l 151 0 l 151 300 l 189 300 b 239 300 258 279 258 214 l 258 86 b 258 29 262 18 268 0 l 380 0 b 369 26 368 51 368 85 l 368 208 b 368 287 350 339 295 356 l 295 358 b 344 378 367 424 367 496 l 367 539 b 367 647 318 700 204 700 l 41 700 z m 151 400 l 151 600 l 201 600 b 240 600 257 578 257 528 l 257 474 b 257 418 232 400 191 400 z"},"2":{"x_min":0,"x_max":400,"ha":400,"o":"m 39 0 l 357 0 l 357 100 l 148 100 l 148 115 b 148 164 165 199 231 269 b 333 377 367 451 367 534 b 367 646 311 710 203 710 b 95 710 39 646 39 534 l 39 466 l 143 466 l 143 541 b 143 591 165 610 200 610 b 235 610 257 593 257 530 b 257 465 233 412 149 323 b 67 237 39 176 39 76 z"},"{":{"x_min":0,"x_max":276,"ha":276,"o":"m 195 -50 l 251 -50 l 251 40 l 235 40 b 200 40 182 56 182 111 l 182 261 b 182 297 169 335 121 349 l 121 351 b 169 365 182 403 182 439 l 182 589 b 182 644 200 660 235 660 l 251 660 l 251 750 l 195 750 b 133 750 84 715 84 639 l 84 455 b 84 409 71 395 21 395 l 21 305 b 71 305 84 291 84 245 l 84 61 b 84 -15 133 -50 195 -50 z"},"9":{"x_min":0,"x_max":400,"ha":400,"o":"m 196 -10 b 310 -10 364 54 364 172 l 364 534 b 364 646 305 710 197 710 b 89 710 30 646 30 534 l 30 409 b 30 306 71 249 152 249 b 201 249 233 270 252 310 l 254 310 l 254 176 b 254 109 232 90 193 90 b 158 90 136 109 136 159 l 136 179 l 32 179 l 32 166 b 32 54 88 -10 196 -10 z m 197 349 b 159 349 140 371 140 418 l 140 542 b 140 588 159 610 197 610 b 235 610 254 588 254 542 l 254 418 b 254 371 235 349 197 349 z"}," ":{"x_min":0,"x_max":160,"ha":160,"o":""},"I":{"x_min":0,"x_max":192,"ha":192,"o":"m 41 0 l 151 0 l 151 700 l 41 700 z"},"H":{"x_min":0,"x_max":420,"ha":420,"o":"m 41 0 l 151 0 l 151 315 l 269 315 l 269 0 l 379 0 l 379 700 l 269 700 l 269 415 l 151 415 l 151 700 l 41 700 z"},"4":{"x_min":0,"x_max":400,"ha":400,"o":"m 225 0 l 335 0 l 335 127 l 387 127 l 387 227 l 335 227 l 335 700 l 215 700 l 15 227 l 15 127 l 225 127 z m 115 227 l 223 500 l 225 500 l 225 227 z"},"~":{"x_min":0,"x_max":400,"ha":400,"o":"m 69 277 b 96 317 109 337 134 337 b 151 337 165 327 193 309 b 229 286 245 280 267 280 b 319 280 350 315 388 380 l 331 423 b 304 383 291 363 266 363 b 249 363 235 373 207 391 b 171 414 155 420 133 420 b 81 420 50 385 12 320 z"},"D":{"x_min":0,"x_max":406,"ha":406,"o":"m 41 0 l 209 0 b 319 0 373 61 373 173 l 373 527 b 373 639 319 700 209 700 l 41 700 z m 151 100 l 151 600 l 207 600 b 242 600 263 582 263 532 l 263 168 b 263 118 242 100 207 100 z"},"^":{"x_min":0,"x_max":400,"ha":400,"o":"m 19 430 l 109 430 l 199 600 l 289 430 l 379 430 l 236 700 l 162 700 z"},"0":{"x_min":0,"x_max":400,"ha":400,"o":"m 200 -10 b 308 -10 367 54 367 166 l 367 534 b 367 646 308 710 200 710 b 92 710 33 646 33 534 l 33 166 b 33 54 92 -10 200 -10 z m 200 90 b 165 90 143 109 143 159 l 143 541 b 143 591 165 610 200 610 b 235 610 257 591 257 541 l 257 159 b 257 109 235 90 200 90 z"},"F":{"x_min":0,"x_max":344,"ha":344,"o":"m 41 0 l 151 0 l 151 305 l 293 305 l 293 405 l 151 405 l 151 600 l 332 600 l 332 700 l 41 700 z"},"`":{"x_min":0,"x_max":500,"ha":500,"o":"m 227 747 l 310 747 l 240 862 l 120 862 z"},"k":{"x_min":0,"x_max":414,"ha":414,"o":"m 41 0 l 151 0 l 151 223 l 195 312 l 288 0 l 403 0 l 270 443 l 401 700 l 291 700 l 151 405 l 151 700 l 41 700 z"},"u":{"x_min":0,"x_max":402,"ha":402,"o":"m 201 -10 b 309 -10 365 54 365 166 l 365 700 l 259 700 l 259 158 b 259 108 238 90 203 90 b 168 90 147 108 147 158 l 147 700 l 37 700 l 37 166 b 37 54 93 -10 201 -10 z"},"]":{"x_min":0,"x_max":276,"ha":276,"o":"m 35 -50 l 217 -50 l 217 750 l 35 750 l 35 660 l 107 660 l 107 40 l 35 40 z"},"U":{"x_min":0,"x_max":402,"ha":402,"o":"m 201 -10 b 309 -10 365 54 365 166 l 365 700 l 259 700 l 259 158 b 259 108 238 90 203 90 b 168 90 147 108 147 158 l 147 700 l 37 700 l 37 166 b 37 54 93 -10 201 -10 z"},"o":{"x_min":0,"x_max":400,"ha":400,"o":"m 200 -10 b 308 -10 367 54 367 166 l 367 534 b 367 646 308 710 200 710 b 92 710 33 646 33 534 l 33 166 b 33 54 92 -10 200 -10 z m 200 90 b 165 90 143 109 143 159 l 143 541 b 143 591 165 610 200 610 b 235 610 257 591 257 541 l 257 159 b 257 109 235 90 200 90 z"},"N":{"x_min":0,"x_max":427,"ha":427,"o":"m 41 0 l 139 0 l 139 511 l 141 511 l 273 0 l 386 0 l 386 700 l 288 700 l 288 281 l 286 281 l 179 700 l 41 700 z"},"+":{"x_min":0,"x_max":400,"ha":400,"o":"m 161 174 l 239 174 l 239 311 l 373 311 l 373 389 l 239 389 l 239 524 l 161 524 l 161 389 l 27 389 l 27 311 l 161 311 z"},"G":{"x_min":0,"x_max":391,"ha":391,"o":"m 197 -10 b 305 -10 361 54 361 166 l 361 395 l 202 395 l 202 295 l 257 295 l 257 158 b 257 108 235 90 200 90 b 165 90 143 108 143 158 l 143 541 b 143 591 165 610 200 610 b 235 610 257 591 257 541 l 257 474 l 361 474 l 361 534 b 361 646 305 710 197 710 b 89 710 33 646 33 534 l 33 166 b 33 54 89 -10 197 -10 z"},"q":{"x_min":0,"x_max":400,"ha":400,"o":"m 365 -65 l 394 -65 l 394 35 l 377 35 b 357 35 344 37 336 51 b 356 80 367 118 367 166 l 367 534 b 367 646 308 710 200 710 b 92 710 33 646 33 534 l 33 166 b 33 54 92 -10 200 -10 b 227 -10 252 -6 273 2 b 286 -50 324 -65 365 -65 z m 200 90 b 165 90 143 109 143 159 l 143 541 b 143 591 165 610 200 610 b 235 610 257 591 257 541 l 257 159 b 257 109 235 90 200 90 z"},"d":{"x_min":0,"x_max":406,"ha":406,"o":"m 41 0 l 209 0 b 319 0 373 61 373 173 l 373 527 b 373 639 319 700 209 700 l 41 700 z m 151 100 l 151 600 l 207 600 b 242 600 263 582 263 532 l 263 168 b 263 118 242 100 207 100 z"},"1":{"x_min":0,"x_max":400,"ha":400,"o":"m 195 0 l 305 0 l 305 700 l 231 700 b 206 632 173 612 80 612 l 80 534 l 195 534 z"},"5":{"x_min":0,"x_max":400,"ha":400,"o":"m 202 -10 b 310 -10 366 54 366 166 l 366 324 b 366 427 325 484 244 484 b 200 484 169 466 149 433 l 147 433 l 156 600 l 348 600 l 348 700 l 58 700 l 38 309 l 142 309 l 142 315 b 142 365 164 384 199 384 b 234 384 256 365 256 315 l 256 158 b 256 108 234 90 199 90 b 164 90 142 108 142 158 l 142 221 l 38 221 l 38 166 b 38 54 94 -10 202 -10 z"}}}
